<?xml version="1.0" encoding="utf-8"?>
<svg width="131" height="44" viewBox="0 0 131 44" fill="none" xmlns="http://www.w3.org/2000/svg">
<path d="M38.6543 8.42708L42.866 2.4324L37.6125 7.20552C33.7112 2.90745 28.1252 0.192871 21.9186 0.192871C10.126 0.192871 0.550049 9.96534 0.550049 22C0.550049 34.0572 10.126 43.807 21.9186 43.807C33.7333 43.807 43.2871 34.0346 43.2871 22C43.3093 16.8649 41.5581 12.1596 38.6543 8.42708ZM36.7923 29.2162C36.7923 33.6274 33.29 37.179 28.9897 37.179H14.8696C10.5472 37.179 7.06701 33.6048 7.06701 29.2162V14.8063C7.06701 10.3951 10.5693 6.84358 14.8696 6.84358H28.9897C31.3837 6.84358 33.5117 7.92941 34.9303 9.64864L21.8521 21.5701L12.9633 15.4171L19.3916 28.0399C19.4359 28.1077 19.4803 28.1756 19.5468 28.2435C19.5689 28.2887 19.5911 28.3113 19.6133 28.3566C19.6798 28.4471 19.7241 28.5376 19.8128 28.6054C19.8793 28.6733 19.9458 28.7185 20.0123 28.7864C20.8324 29.5329 21.9186 29.7817 22.9382 29.5329H22.9604C23.1377 29.4877 23.3151 29.4198 23.4924 29.3293C23.5146 29.3067 23.5367 29.3067 23.5811 29.2841C23.7362 29.2162 23.8692 29.1257 24.0244 29.0126C24.0687 28.99 24.1131 28.9447 24.1574 28.9221C24.2239 28.8769 24.3126 28.8316 24.3791 28.7638C24.4234 28.7185 24.4677 28.6507 24.5121 28.6054C24.5342 28.5828 24.5564 28.5602 24.5786 28.5376L24.6451 28.4471C24.7337 28.334 24.8224 28.2209 24.8889 28.1077L36.2382 11.8655C36.5928 12.7704 36.7923 13.7657 36.7923 14.8063V29.2162Z" fill="#0070E0"/>
<path d="M71.3056 37.6541C61.5523 37.6541 55.0132 31.3427 55.0132 21.9774C55.0132 12.7479 61.7075 6.30078 71.3056 6.30078C77.6452 6.30078 80.9037 8.76652 81.746 9.51303L79.7954 14.6481C78.5319 13.5849 75.4729 11.7299 71.7268 11.7299C65.7196 11.7299 61.6853 15.8018 61.6853 21.8643C61.6853 27.7912 65.8083 31.9535 71.7268 31.9535C75.9827 31.9535 78.7314 30.2343 80.1722 28.9675L82.278 33.8085C79.5959 36.3195 75.8941 37.6541 71.3056 37.6541Z" fill="#0070E0"/>
<path d="M91.7653 6.73047H85.2705V37.1111H91.7653V6.73047Z" fill="#0070E0"/>
<path d="M96.6641 37.0885V15.666H103.159V37.1111H96.6641V37.0885ZM99.9226 12.1597C97.6395 12.1597 96.1543 10.8702 96.1543 8.85693C96.1543 6.88886 97.6616 5.5542 99.9226 5.5542C102.161 5.5542 103.691 6.88886 103.691 8.85693C103.669 10.8476 102.206 12.1597 99.9226 12.1597Z" fill="#0070E0"/>
<path d="M118.808 37.6088C111.493 37.6088 106.573 33.1297 106.573 26.4564C106.573 19.7605 111.493 15.2588 118.808 15.2588C126.101 15.2588 131 19.7605 131 26.4564C130.978 33.1297 126.079 37.6088 118.808 37.6088ZM118.808 20.0545C115.439 20.0545 113.178 22.5655 113.178 26.3207C113.178 30.0758 115.439 32.5868 118.808 32.5868C122.178 32.5868 124.439 30.0758 124.439 26.3207C124.439 22.5655 122.178 20.0545 118.808 20.0545Z" fill="#0070E0"/>
</svg>
