<svg xmlns="http://www.w3.org/2000/svg" width="675" height="125" viewBox="0 0 675 125">
  <g fill="none" fill-rule="evenodd">
    <path fill="#2D7686" d="M170.652 93.3547C183.34 93.3547 193.49 87.7415 194.566 74.3619L183.263 72.824C182.571 78.9755 178.649 83.6661 170.806 83.6661 162.04 83.6661 157.349 76.8994 157.349 65.8266 157.349 54.7539 161.809 48.141 170.575 48.141 178.418 48.141 182.263 53.1391 182.801 58.5217L194.182 56.7531C192.951 42.8353 183.109 38.4523 170.421 38.4523 154.043 38.4523 145.2 48.3717 145.2 65.8266 145.2 83.5892 154.351 93.3547 170.729 93.3547L170.652 93.3547zM239.748 72.0551C239.748 58.3679 232.135 50.7554 218.986 50.7554 205.838 50.7554 198.225 58.3679 198.225 72.0551 198.225 85.6653 205.838 93.3547 218.986 93.3547 232.135 93.3547 239.748 85.6653 239.748 72.0551zM209.99 72.0551C209.99 63.9812 212.758 59.3675 218.986 59.3675 225.215 59.3675 227.983 63.9812 227.983 72.0551 227.983 80.0521 225.215 84.7426 218.986 84.7426 212.758 84.7426 209.99 80.0521 209.99 72.0551z"/>
    <polygon fill="#2D7686" points="253.666 51.678 241.516 51.678 256.434 93.201 269.66 93.201 284.5 51.678 272.428 51.678 263.354 81.974 263.047 81.974"/>
    <path fill="#2D7686" d="M315.258 78.2835C314.72 83.2816 311.259 84.7426 306.876 84.7426 301.801 84.7426 298.418 81.7437 298.187 74.9002L325.562 74.9002 325.562 69.5176C325.562 58.7524 319.718 50.7554 306.261 50.7554 293.804 50.7554 286.269 59.3675 286.269 72.0551 286.269 86.3574 294.343 93.3547 306.338 93.3547 317.642 93.3547 324.947 88.818 325.946 79.5138L315.258 78.2835zM306.338 59.2138C311.644 59.2138 313.874 62.5202 313.874 66.4418L313.874 66.7494 298.418 66.7494C298.803 62.3664 301.263 59.2138 306.338 59.2138zM356.364 51.2168C350.828 51.2168 345.676 52.6009 343.6 59.3675L343.369 59.3675 343.369 51.6781 332.066 51.6781 332.066 92.432 343.6 92.432 343.6 73.9774C343.6 64.4426 348.982 61.0592 356.133 61.0592L357.21 61.0592 357.21 51.2168 356.364 51.2168zM359.715 80.2827C359.715 88.9718 365.867 92.9703 373.326 92.9703 379.862 92.9703 383.706 89.9714 385.706 86.4343L386.013 86.4343 386.013 92.432 396.01 92.432 396.01 66.9032C396.01 55.2153 388.397 50.7554 378.631 50.7554 371.25 50.7554 361.023 53.216 361.023 62.5971L370.558 64.9808 371.019 64.9808C371.019 60.8285 375.248 59.3675 378.093 59.3675 381.784 59.3675 384.475 61.5975 384.475 65.2884L384.475 67.057 377.555 67.057C368.789 67.057 359.715 70.2096 359.715 80.2827zM384.475 76.8225C384.475 81.3593 380.016 84.0506 376.325 84.0506 373.71 84.0506 371.48 82.6665 371.48 79.6676 371.48 76.5149 373.941 74.9002 378.401 74.9002L384.475 74.9002 384.475 76.8225zM439.685 66.0573C439.685 63.6736 439.147 61.905 438.071 60.2903L445.299 60.2903 445.299 51.8319 429.612 51.8319C428.305 51.2168 424.46 50.7554 421.692 50.7554 410.235 50.7554 403.699 56.2918 403.699 65.2884 403.699 70.1327 405.698 73.7467 408.697 76.0536 404.622 77.6683 403.468 81.2824 403.468 83.8199 403.468 86.665 405.16 89.7407 408.543 90.7403L408.543 91.0479C404.237 91.74 402.161 94.3544 402.161 98.4298 402.161 104.4275 406.928 108.1953 422.384 108.1953 436.071 108.1953 443.222 103.8123 443.222 95.5847 443.222 88.2028 438.147 84.1274 428.536 84.1274L417.309 84.1274C414.772 84.1274 413.464 83.1278 413.464 81.6668 413.464 80.7441 413.926 79.5907 415.156 78.9755 417.309 79.5907 419.77 79.9752 421.692 79.9752 431.458 79.9752 439.685 76.0536 439.685 66.0573zM415.464 65.2884C415.464 61.0592 417.232 58.291 421.692 58.291 426.152 58.291 427.921 61.0592 427.921 65.2884 427.921 69.5176 426.152 72.4395 421.692 72.4395 417.232 72.4395 415.464 69.5176 415.464 65.2884zM426.46 93.5085C429.766 93.5085 431.458 94.585 431.458 96.815 431.458 99.8138 428.843 101.0442 422.307 101.0442 416.079 101.0442 413.849 99.8138 413.849 97.1994 413.849 95.1233 415.002 93.5085 418.539 93.5085L426.46 93.5085zM476.793 78.2835C476.255 83.2816 472.795 84.7426 468.412 84.7426 463.337 84.7426 459.953 81.7437 459.723 74.9002L487.097 74.9002 487.097 69.5176C487.097 58.7524 481.253 50.7554 467.797 50.7554 455.34 50.7554 447.804 59.3675 447.804 72.0551 447.804 86.3574 455.878 93.3547 467.873 93.3547 479.177 93.3547 486.482 88.818 487.481 79.5138L476.793 78.2835zM467.873 59.2138C473.179 59.2138 475.409 62.5202 475.409 66.4418L475.409 66.7494 459.953 66.7494C460.338 62.3664 462.798 59.2138 467.873 59.2138zM494.171 39.3751L494.171 92.432 518.931 92.432C532.541 92.432 537.386 83.9737 537.386 77.1301 537.386 70.7479 534.233 66.5956 528.697 64.6732 535.233 62.0588 536.386 56.5994 536.386 52.8315 536.386 47.6796 533.31 39.3751 518.239 39.3751L494.171 39.3751zM506.09 82.7434L506.09 69.5176 517.855 69.5176C522.699 69.5176 525.236 72.2858 525.236 75.8229 525.236 79.5138 523.314 82.7434 518.393 82.7434L506.09 82.7434zM517.778 49.0637C522.238 49.0637 524.16 51.5243 524.16 54.3694 524.16 57.9066 521.161 60.3672 518.008 60.3672L506.09 60.3672 506.09 49.0637 517.778 49.0637zM583.336 72.0551C583.336 58.3679 575.724 50.7554 562.575 50.7554 549.426 50.7554 541.814 58.3679 541.814 72.0551 541.814 85.6653 549.426 93.3547 562.575 93.3547 575.724 93.3547 583.336 85.6653 583.336 72.0551zM553.578 72.0551C553.578 63.9812 556.347 59.3675 562.575 59.3675 568.803 59.3675 571.572 63.9812 571.572 72.0551 571.572 80.0521 568.803 84.7426 562.575 84.7426 556.347 84.7426 553.578 80.0521 553.578 72.0551zM628.826 72.0551C628.826 58.3679 621.213 50.7554 608.064 50.7554 594.915 50.7554 587.303 58.3679 587.303 72.0551 587.303 85.6653 594.915 93.3547 608.064 93.3547 621.213 93.3547 628.826 85.6653 628.826 72.0551zM599.068 72.0551C599.068 63.9812 601.836 59.3675 608.064 59.3675 614.293 59.3675 617.061 63.9812 617.061 72.0551 617.061 80.0521 614.293 84.7426 608.064 84.7426 601.836 84.7426 599.068 80.0521 599.068 72.0551zM646.556 39.3751L635.022 39.3751 635.022 92.432 646.556 92.432 646.556 80.0521 651.247 75.1308 661.166 92.432 674.93 92.432 659.474 67.4414C664.626 61.9819 668.702 57.1376 673.777 51.6781L659.859 51.6781 651.631 61.3668C649.863 63.4429 648.171 65.596 646.556 67.6721L646.556 39.3751z"/>
    <path fill="#E78188" d="M7.5008,90.8121 C5.9012,91.6271 3.9925,91.5521 2.462,90.6137 C0.9316,89.6749 -0.0009,88.0084 0,86.2131 C0.0086,71.3326 0.0258,40.7827 0.0325,28.2227 C0.0348,24.8025 1.9693,21.677 5.0293,20.15 C16.4548,14.447 27.8749,8.732 39.3131,3.055 C43.4375,1.032 48.009,-0.022 52.5543,0 C56.7949,0.032 61.002,0.972 64.8178,2.742 C66.0273,3.302 66.8667,3.806 67.7327,4.423 C67.7602,4.443 67.7883,4.463 67.8158,4.483 C67.9686,4.593 68.0346,4.636 68.1381,4.708 C72.8398,7.996 76.1402,13.402 76.0521,19.067 C79.456,17.77 83.0964,17.103 86.7643,17.112 C91.1017,17.144 95.4354,18.101 99.3189,19.987 C99.3203,19.988 99.3149,19.986 99.3158,19.986 C100.265,20.438 101.16,20.966 102.032,21.595 C102.554,21.972 102.647,22.024 102.898,22.21 C103.149,22.396 103.395,22.587 103.638,22.783 C107.032,25.5311 109.469,29.5118 110.104,33.7727 L109.728,98.5991 C109.085,104.2933 105.935,108.1723 101.184,110.8911 C101.184,110.8911 85.5322,118.9911 75.8347,124.0098 C74.2378,124.8363 72.3258,124.7715 70.7886,123.839 C69.2509,122.9066 68.3103,121.2408 68.3054,119.4428 C68.2642,104.7132 68.1811,74.7261 68.1467,62.2963 C68.1372,58.8702 70.0681,55.7338 73.1313,54.1997 C78.1082,51.707 83.0874,49.216 88.0683,46.7273 C90.5326,45.4961 93.0005,44.273 95.4661,43.0341 C95.5172,43.0083 95.5683,42.9812 95.6189,42.9546 C96.1749,42.6549 96.9035,42.1012 96.9035,42.1012 C96.9035,42.1012 98.5926,40.9219 99.6109,39.5045 C100.743,37.9279 101.233,35.8854 100.617,33.9865 C99.6439,30.9857 96.5726,28.9789 94.4252,28.0767 C89.0971,25.8375 82.8098,26.0382 77.6142,28.6173 C77.6142,28.6173 51.0216,41.8788 44.7741,44.9944 C43.9759,45.3922 43.4714,46.2076 43.4714,47.0993 C43.4714,56.3743 43.4714,106.8254 43.4714,106.8254 C43.4714,106.8254 42.685,107.2263 41.5672,107.7958 C39.9698,108.6099 38.0647,108.5362 36.5351,107.601 C35.0056,106.6663 34.0709,105.0043 34.0663,103.2117 C34.0311,88.3434 33.9579,57.7659 33.928,45.1874 C33.9194,41.7631 35.8495,38.629 38.9108,37.0949 C46.3782,33.3614 59.5534,26.7759 61.2457,25.9252 C61.9734,25.5519 62.8457,24.8608 62.8457,24.8608 C65.2639,23.107 67.2622,20.388 66.5295,17.329 C66.0255,15.224 64.4322,13.558 62.7133,12.368 C62.7133,12.368 61.7026,11.644 60.8696,11.257 C55.4005,8.721 48.8203,8.815 43.3987,11.506 C43.3987,11.506 16.8671,24.7369 10.6653,27.8295 C9.8779,28.2223 9.3802,29.0268 9.3802,29.9068 C9.3802,39.1483 9.3802,89.8544 9.3802,89.8544 C9.3802,89.8544 8.6051,90.2494 7.5008,90.8121 Z"/>
  </g>
</svg>
