<svg width="99" height="35" viewBox="0 0 99 35" fill="none" xmlns="http://www.w3.org/2000/svg">
<path d="M33.7825 29.2191C32.2114 29.2191 30.7733 28.9307 29.4681 28.3539C28.1629 27.7772 27.0268 26.9906 26.06 25.9944C25.0932 24.9719 24.3439 23.7921 23.8122 22.4551C23.2804 21.118 23.0145 19.6891 23.0145 18.1685V18.0899C23.0145 16.5693 23.2804 15.1405 23.8122 13.8034C24.3681 12.4401 25.1174 11.2603 26.06 10.264C27.0268 9.24157 28.1749 8.44195 29.5043 7.86517C30.8337 7.26217 32.2839 6.96067 33.855 6.96067C35.4261 6.96067 36.8643 7.26217 38.1695 7.86517C39.4989 8.44195 40.647 9.22846 41.6138 10.2247C42.5806 11.221 43.3299 12.3876 43.8616 13.7247C44.3934 15.0618 44.6593 16.4906 44.6593 18.0112V18.0899C44.6593 19.6105 44.3813 21.0524 43.8254 22.4157C43.2936 23.7528 42.5444 24.9326 41.5775 25.9551C40.6107 26.9513 39.4626 27.7509 38.1332 28.3539C36.8038 28.9307 35.3536 29.2191 33.7825 29.2191ZM33.855 22.8876C34.4835 22.8876 35.0515 22.7697 35.5591 22.5337C36.0666 22.2715 36.5017 21.9307 36.8643 21.5112C37.2268 21.0655 37.5048 20.5543 37.6982 19.9775C37.8915 19.4007 37.9882 18.7978 37.9882 18.1685V18.0899C37.9882 17.4345 37.8794 16.8184 37.6619 16.2416C37.4685 15.6386 37.1785 15.1273 36.7918 14.7079C36.4292 14.2622 35.982 13.9082 35.4503 13.6461C34.9427 13.3839 34.3868 13.2528 33.7825 13.2528C33.1541 13.2528 32.5861 13.3839 32.0785 13.6461C31.5709 13.882 31.1358 14.2228 30.7733 14.6685C30.4349 15.088 30.169 15.5861 29.9757 16.1629C29.7823 16.7397 29.6856 17.3558 29.6856 18.0112V18.0899C29.6856 18.7453 29.7823 19.3614 29.9757 19.9382C30.1932 20.515 30.4832 21.0262 30.8458 21.4719C31.2325 21.8914 31.6797 22.2322 32.1873 22.4944C32.6948 22.7566 33.2508 22.8876 33.855 22.8876Z" fill="#4B2AAD"/>
<path d="M70.6559 3.5C70.6559 1.567 72.2229 0 74.1559 0H74.2983C76.2313 0 77.7983 1.567 77.7983 3.5C77.7983 5.433 76.2313 7 74.2983 7H74.1559C72.2229 7 70.6559 5.433 70.6559 3.5ZM70.8009 9.5C70.8009 9.22386 71.0247 9 71.3009 9H77.1532C77.4294 9 77.6532 9.22386 77.6532 9.5V28.2079C77.6532 28.484 77.4294 28.7079 77.1532 28.7079H71.3009C71.0247 28.7079 70.8009 28.484 70.8009 28.2079V9.5Z" fill="#4B2AAD"/>
<path fill-rule="evenodd" clip-rule="evenodd" d="M54.82 29.1798C53.6598 29.1798 52.5479 28.9307 51.4844 28.4326C50.4451 27.9082 49.5266 27.1742 48.729 26.2303C47.9314 25.2865 47.2908 24.133 46.8074 22.7697C46.3482 21.4064 46.1186 19.8727 46.1186 18.1685V18.0899C46.1186 16.3596 46.3482 14.8127 46.8074 13.4494C47.2908 12.0599 47.9193 10.8933 48.6927 9.94944C49.4904 8.9794 50.4089 8.24532 51.4482 7.74719C52.5117 7.22285 53.6235 6.96067 54.7837 6.96067C54.7837 6.96067 59.302 7 60.7723 9V1C60.7723 0.447715 61.22 0 61.7723 0H66.6545C67.2068 0 67.6545 0.447715 67.6545 1V28.2079C67.6545 28.484 67.4307 28.7079 67.1545 28.7079H61.2659C60.9898 28.7079 60.7659 28.484 60.7659 28.2079V27C58.8119 29 54.82 29.1798 54.82 29.1798ZM58.4456 22.573C57.9622 22.809 57.4425 22.927 56.8866 22.927C56.3306 22.927 55.811 22.809 55.3276 22.573C54.8442 22.3371 54.4212 22.0094 54.0586 21.5899C53.696 21.1442 53.406 20.633 53.1885 20.0562C52.9709 19.4532 52.8622 18.7978 52.8622 18.0899V18.0112C52.8622 17.3034 52.9709 16.661 53.1885 16.0843C53.406 15.4813 53.696 14.97 54.0586 14.5506C54.4212 14.1049 54.8442 13.764 55.3276 13.5281C55.811 13.2921 56.3306 13.1742 56.8866 13.1742C57.4425 13.1742 57.9622 13.2921 58.4456 13.5281C58.9531 13.764 59.3882 14.1049 59.7508 14.5506C60.1133 14.97 60.3913 15.4813 60.5847 16.0843C60.8022 16.661 60.911 17.3034 60.911 18.0112V18.0899C60.911 18.7978 60.8022 19.4532 60.5847 20.0562C60.3913 20.633 60.1133 21.1442 59.7508 21.5899C59.3882 22.0094 58.9531 22.3371 58.4456 22.573Z" fill="#4B2AAD"/>
<path fill-rule="evenodd" clip-rule="evenodd" d="M0 7.93258C0 7.65644 0.223858 7.43259 0.5 7.43259H6.38861C6.66475 7.43259 6.88861 7.65644 6.88861 7.93259V9.26405C6.88861 9.26405 8.67603 7.74719 10.8405 7.23596C11.4448 7.05243 12.1095 6.96067 12.8346 6.96067C13.9948 6.96067 15.0945 7.22285 16.1339 7.74719C17.1974 8.24532 18.1279 8.96629 18.9256 9.91011C19.7232 10.8539 20.3516 12.0075 20.8109 13.3708C21.2943 14.7341 21.536 16.2678 21.536 17.9719V18.0506C21.536 19.7809 21.2943 21.3408 20.8109 22.7303C20.3516 24.0936 19.7232 25.2603 18.9256 26.2303C18.1521 27.1742 17.2336 27.9082 16.1701 28.4326C15.1308 28.9307 14.031 29.1798 12.8708 29.1798C12.8708 29.1798 8.33168 29.1798 6.86139 27.5V34.5C6.86139 34.7761 6.63753 35 6.36139 35H0.5C0.223858 35 0 34.7761 0 34.5V7.93258ZM12.327 22.573C11.8436 22.809 11.3239 22.927 10.768 22.927C10.2121 22.927 9.68031 22.809 9.17273 22.573C8.68932 22.3371 8.26633 22.0094 7.90378 21.5899C7.54122 21.1442 7.25117 20.633 7.03363 20.0562C6.84027 19.4532 6.74359 18.7978 6.74359 18.0899V18.0112C6.74359 17.3034 6.84027 16.661 7.03363 16.0843C7.25117 15.4813 7.54122 14.97 7.90378 14.5506C8.26633 14.1049 8.68932 13.764 9.17273 13.5281C9.68031 13.2921 10.2121 13.1742 10.768 13.1742C11.3239 13.1742 11.8436 13.2921 12.327 13.5281C12.8104 13.764 13.2334 14.1049 13.5959 14.5506C13.9585 14.97 14.2486 15.4813 14.4661 16.0843C14.6836 16.661 14.7924 17.3034 14.7924 18.0112V18.0899C14.7924 18.7978 14.6836 19.4532 14.4661 20.0562C14.2486 20.6592 13.9585 21.1704 13.5959 21.5899C13.2334 22.0094 12.8104 22.3371 12.327 22.573Z" fill="#4B2AAD"/>
<path fill-rule="evenodd" clip-rule="evenodd" d="M85.5128 13.1348C84.8201 13.3066 83.7836 13.6855 82.9398 14.0187C82.6599 14.1292 82.3446 13.9735 82.266 13.683L81.1114 9.4122C81.0473 9.1748 81.1648 8.92567 81.3911 8.82932C82.4769 8.36697 83.91 7.84612 85.0052 7.58989C86.2621 7.27528 87.7365 7.11798 89.4285 7.11798C89.4285 7.11798 99 7.11798 99 16.4775V28.2079C99 28.484 98.7761 28.7079 98.5 28.7079H92.7202C92.444 28.7079 92.2202 28.484 92.2202 28.2079V27.5C91.1584 29 86.4192 29.1798 86.4192 29.1798C80.5 28.7079 80 24 80 24C79 17.5 83.7979 15.5 87.5 15.5C91.5 15.5 92.5 15 92.5 15C92.5 13 89.4285 12.5 85.5128 13.1348ZM92.3289 20.1236C92.3289 24.2229 87 25.5 86 23.5C85 21 88 19.5 92.3289 20.1236Z" fill="#4B2AAD"/>
</svg>
