<svg xmlns="http://www.w3.org/2000/svg" width="191" height="223" fill="none" viewBox="0 0 191 223">
  <g fill="#fff" clip-path="url(#a)">
    <path d="M155.83 1.219c5.482-.673 10.471 3.225 11.144 8.706l22.424 182.629c.673 5.482-3.225 10.471-8.707 11.144L57.585 218.814c-15.85 1.946-30.449-7.709-35.301-22.31a10 10 0 0 1-1.079-3.449 34 34 0 0 1-.152-1.509 33 33 0 0 1-.213-1.468L4.022 53.106C1.8 35.02 14.648 18.554 32.723 16.334zM166.135 167.2 52.954 181.097c-8.23 1.01-11.859 3.693-11.97 8.125 1.567 6.28 7.595 10.547 14.162 9.741l113.182-13.897zM148.342 22.288 35.161 36.185c-7.004.86-12.016 7.168-11.322 14.175l.034.309 13.986 113.906c3.76-1.637 8.023-2.76 12.657-3.329l113.181-13.897z"/>
    <path d="M78.9 137.611q-6.114.75-9.937-2.234t-4.573-9.093l-7.658-63.518q-.767-6.25 2.158-9.991 2.927-3.742 9.043-4.494 6.254-.767 9.93 2.164 3.675 2.932 4.442 9.18l6.635 55.187 33.911-4.164q5.281-.647 8.461 1.71 3.184 2.358 3.813 7.496.632 5.137-1.876 8.265-2.51 3.126-7.789 3.775z"/>
  </g>
  <defs>
    <clipPath id="a">
      <path fill="#fff" d="M0 0h190.617v222.832H0z"/>
    </clipPath>
  </defs>
</svg>
