<svg width="1100" height="164" viewBox="0 0 1100 164" xmlns="http://www.w3.org/2000/svg">
  <g fill="none" fill-rule="evenodd">
    <g fill-rule="nonzero">
      <path d="M232.34 136.305c-4.523 0-8.044-1.258-10.562-3.774-2.519-2.516-3.778-6.034-3.778-10.553v-80.11c0-4.622 1.234-8.165 3.7-10.63 2.468-2.465 5.963-3.697 10.485-3.697 4.626 0 8.147 1.232 10.562 3.697 2.416 2.465 3.624 6.008 3.624 10.63v70.867h37.622c3.906 0 6.913 1 9.02 3.004 2.108 2.002 3.161 4.904 3.161 8.704 0 3.8-1.053 6.727-3.16 8.781-2.108 2.054-5.115 3.081-9.02 3.081H232.34ZM352.899 138c-10.999 0-20.661-2.337-28.988-7.01-8.326-4.673-14.776-11.22-19.35-19.642-4.575-8.422-6.862-18.23-6.862-29.425 0-8.422 1.31-16.073 3.932-22.955 2.621-6.88 6.373-12.786 11.256-17.716 4.882-4.93 10.716-8.705 17.5-11.324C337.172 27.31 344.675 26 352.9 26c10.999 0 20.636 2.31 28.91 6.933 8.275 4.621 14.726 11.117 19.351 19.488 4.626 8.37 6.939 18.204 6.939 29.502 0 8.422-1.31 16.073-3.932 22.955-2.621 6.88-6.373 12.812-11.256 17.793-4.882 4.981-10.716 8.782-17.5 11.4-6.785 2.62-14.289 3.929-22.512 3.929Zm0-23.725c5.448 0 10.074-1.284 13.877-3.851 3.803-2.568 6.733-6.265 8.789-11.093 2.056-4.827 3.084-10.63 3.084-17.408 0-10.168-2.262-18.076-6.785-23.725-4.523-5.649-10.844-8.473-18.965-8.473-5.345 0-9.945 1.258-13.8 3.774-3.855 2.517-6.81 6.163-8.866 10.938-2.056 4.776-3.084 10.605-3.084 17.486 0 10.168 2.262 18.102 6.785 23.802 4.523 5.7 10.844 8.55 18.965 8.55ZM475.617 138c-10.999 0-20.662-2.337-28.988-7.01s-14.776-11.22-19.35-19.642c-4.575-8.422-6.862-18.23-6.862-29.425 0-8.422 1.31-16.073 3.932-22.955 2.621-6.88 6.373-12.786 11.256-17.716 4.882-4.93 10.716-8.705 17.5-11.324C459.89 27.31 467.393 26 475.617 26c10.999 0 20.636 2.31 28.91 6.933 8.275 4.621 14.726 11.117 19.351 19.488 4.626 8.37 6.939 18.204 6.939 29.502 0 8.422-1.31 16.073-3.932 22.955-2.621 6.88-6.373 12.812-11.256 17.793s-10.716 8.782-17.5 11.4c-6.785 2.62-14.289 3.929-22.512 3.929Zm0-23.725c5.448 0 10.074-1.284 13.877-3.851 3.803-2.568 6.733-6.265 8.789-11.093 2.056-4.827 3.084-10.63 3.084-17.408 0-10.168-2.262-18.076-6.785-23.725-4.523-5.649-10.844-8.473-18.965-8.473-5.345 0-9.945 1.258-13.8 3.774-3.855 2.517-6.81 6.163-8.866 10.938-2.056 4.776-3.084 10.605-3.084 17.486 0 10.168 2.262 18.102 6.785 23.802 4.522 5.7 10.844 8.55 18.965 8.55ZM560.096 137.692c-4.523 0-8.018-1.258-10.485-3.775-2.467-2.516-3.7-6.033-3.7-10.552v-82.73c0-4.724 1.233-8.293 3.7-10.707 2.467-2.413 5.962-3.62 10.485-3.62 4.625 0 8.146 1.207 10.562 3.62 2.415 2.414 3.623 5.983 3.623 10.707V74.22h.309l37.468-41.287c1.953-2.055 4.034-3.672 6.244-4.853 2.21-1.181 4.703-1.772 7.479-1.772 4.317 0 7.426 1.104 9.328 3.312 1.902 2.209 2.776 4.776 2.621 7.703-.154 2.927-1.362 5.623-3.623 8.088l-37.314 39.593V73.45l39.164 44.214c2.673 2.979 4.01 6.034 4.01 9.167 0 3.132-1.055 5.726-3.162 7.78-2.107 2.054-5.217 3.08-9.328 3.08-3.495 0-6.296-.692-8.404-2.079-2.107-1.386-4.394-3.466-6.861-6.24L574.59 87.316h-.309v36.05c0 4.519-1.182 8.036-3.546 10.552-2.364 2.517-5.91 3.775-10.64 3.775Z" fill="#3730A3"/>
      <path d="M668.782 136.305c-4.83 0-8.506-1.258-11.024-3.774-2.519-2.516-3.778-6.137-3.778-10.861V42.33c0-4.724 1.26-8.345 3.778-10.86 2.518-2.517 6.193-3.775 11.024-3.775h37.623c7.812 0 14.468 1.155 19.967 3.466 5.5 2.31 9.689 5.572 12.567 9.783 2.878 4.21 4.317 9.14 4.317 14.79 0 6.367-1.824 11.81-5.474 16.33-3.649 4.518-8.609 7.6-14.879 9.243v-2.465c7.401 1.335 13.132 4.313 17.192 8.935 4.06 4.622 6.09 10.527 6.09 17.717 0 9.551-3.417 17.075-10.253 22.57-6.836 5.494-16.164 8.241-27.985 8.241h-39.165Zm12.336-20.797h22.974c5.242 0 9.071-1.002 11.487-3.005 2.416-2.002 3.624-5.006 3.624-9.012 0-4.005-1.208-6.984-3.624-8.935-2.416-1.952-6.245-2.927-11.487-2.927h-22.974v23.879Zm0-44.677h20.199c5.14 0 8.917-.925 11.332-2.773 2.416-1.849 3.624-4.673 3.624-8.473 0-3.8-1.208-6.6-3.624-8.397-2.415-1.797-6.193-2.696-11.332-2.696h-20.2v22.339ZM812.933 138c-10.999 0-20.662-2.337-28.988-7.01s-14.776-11.22-19.35-19.642c-4.575-8.422-6.862-18.23-6.862-29.425 0-8.422 1.31-16.073 3.932-22.955 2.62-6.88 6.373-12.786 11.256-17.716 4.882-4.93 10.716-8.705 17.5-11.324C797.205 27.31 804.71 26 812.933 26c10.999 0 20.636 2.31 28.91 6.933 8.275 4.621 14.726 11.117 19.351 19.488 4.626 8.37 6.939 18.204 6.939 29.502 0 8.422-1.31 16.073-3.932 22.955-2.621 6.88-6.373 12.812-11.256 17.793s-10.716 8.782-17.5 11.4c-6.785 2.62-14.289 3.929-22.512 3.929Zm0-23.725c5.448 0 10.074-1.284 13.877-3.851 3.803-2.568 6.733-6.265 8.789-11.093 2.056-4.827 3.084-10.63 3.084-17.408 0-10.168-2.262-18.076-6.785-23.725-4.523-5.649-10.845-8.473-18.965-8.473-5.345 0-9.945 1.258-13.8 3.774-3.855 2.517-6.81 6.163-8.866 10.938-2.056 4.776-3.084 10.605-3.084 17.486 0 10.168 2.262 18.102 6.784 23.802 4.523 5.7 10.845 8.55 18.966 8.55ZM935.65 138c-10.998 0-20.66-2.337-28.987-7.01-8.326-4.673-14.776-11.22-19.35-19.642-4.575-8.422-6.862-18.23-6.862-29.425 0-8.422 1.31-16.073 3.932-22.955 2.62-6.88 6.373-12.786 11.256-17.716 4.882-4.93 10.716-8.705 17.5-11.324C919.923 27.31 927.427 26 935.651 26c10.999 0 20.636 2.31 28.91 6.933 8.275 4.621 14.726 11.117 19.351 19.488 4.626 8.37 6.939 18.204 6.939 29.502 0 8.422-1.31 16.073-3.932 22.955-2.621 6.88-6.373 12.812-11.256 17.793s-10.716 8.782-17.5 11.4c-6.785 2.62-14.289 3.929-22.512 3.929Zm0-23.725c5.449 0 10.075-1.284 13.878-3.851 3.803-2.568 6.733-6.265 8.789-11.093 2.056-4.827 3.083-10.63 3.083-17.408 0-10.168-2.261-18.076-6.784-23.725-4.523-5.649-10.845-8.473-18.965-8.473-5.345 0-9.945 1.258-13.8 3.774-3.855 2.517-6.81 6.163-8.866 10.938-2.056 4.776-3.084 10.605-3.084 17.486 0 10.168 2.262 18.102 6.784 23.802 4.523 5.7 10.845 8.55 18.966 8.55ZM1020.13 137.692c-4.523 0-8.018-1.258-10.485-3.775-2.467-2.516-3.7-6.033-3.7-10.552v-82.73c0-4.724 1.233-8.293 3.7-10.707 2.467-2.413 5.962-3.62 10.485-3.62 4.625 0 8.146 1.207 10.562 3.62 2.415 2.414 3.623 5.983 3.623 10.707V74.22h.309l37.468-41.287c1.953-2.055 4.034-3.672 6.244-4.853 2.21-1.181 4.703-1.772 7.479-1.772 4.317 0 7.426 1.104 9.328 3.312 1.902 2.209 2.775 4.776 2.621 7.703-.154 2.927-1.362 5.623-3.623 8.088l-37.314 39.593V73.45l39.164 44.214c2.673 2.979 4.009 6.034 4.009 9.167 0 3.132-1.054 5.726-3.16 7.78-2.108 2.054-5.218 3.08-9.33 3.08-3.494 0-6.295-.692-8.403-2.079-2.107-1.386-4.394-3.466-6.861-6.24l-37.622-42.057h-.309v36.05c0 4.519-1.182 8.036-3.546 10.552-2.364 2.517-5.91 3.775-10.64 3.775Z" fill="#4F46E5"/>
    </g>
    <g stroke="#A5A0F4" stroke-linejoin="round" stroke-width="12">
      <path d="M24.906 6H127v152H24.906C14.465 158 6 149.493 6 139V25C6 14.507 14.465 6 24.906 6Z" stroke-linecap="round"/>
      <path d="M7 146c0-5.939 1.996-9.563 4.55-12.636C14.73 129.536 19.072 127 24.92 127H128"/>
      <path stroke-linecap="round" d="M51.009 37v56.654L51 94h42"/>
    </g>
  </g>
</svg>