<svg version="1.1"
      xmlns="http://www.w3.org/2000/svg"
      xmlns:xlink="http://www.w3.org/1999/xlink"  id="snapshot-74434" width="800" height="800" viewBox="0 0 800 800"><desc>This image was made on Patterninja.com</desc><defs>
<!-- image 24879 -->
<g id="transformed-24879" data-image="24879" transform="translate(267.5, 304) rotate(350, 101.5, 125)"><g><svg version="1.1" width="203px" height="250px" viewBox="0 0 203 250"><g id="original-24879"><svg xmlns="http://www.w3.org/2000/svg" fill="none" viewBox="0 0 18 22" xmlns:xlink="http://www.w3.org/1999/xlink" version="1.1" preserveAspectRatio="xMidYMid meet">
  <path d="M3.5 1H17v20H3.5A2.5 2.5 0 0 1 1 18.5v-15A2.5 2.5 0 0 1 3.5 1z" fill-rule="evenodd" stroke-width="2" stroke-linecap="round" stroke-linejoin="round" fill="rgba(0, 0, 0, 0)" stroke="rgba(199, 210, 254, 0.3)"/>
  <path d="M1.153 19.36c0-.737.261-1.188.596-1.57.417-.475.985-.79 1.751-.79H17M6.801 5.1v7.554L6.8 12.7h5.57" fill-rule="evenodd" stroke-width="2" stroke-linecap="round" stroke-linejoin="round" fill="rgba(0, 0, 0, 0)" stroke="rgba(199, 210, 254, 0.3)"/>
</svg>
</g></svg></g></g>
<!-- /image 24879 -->

<!-- image 59775 -->
<g id="transformed-59775" data-image="59775" transform="translate(618, 582) rotate(345, 152, 187)"><g><svg version="1.1" width="304px" height="374px" viewBox="0 0 304 374"><g id="original-59775"><svg xmlns="http://www.w3.org/2000/svg" fill="none" viewBox="0 0 18 22" xmlns:xlink="http://www.w3.org/1999/xlink" version="1.1" preserveAspectRatio="xMidYMid meet">
  <path d="M3.5 1H17v20H3.5A2.5 2.5 0 0 1 1 18.5v-15A2.5 2.5 0 0 1 3.5 1z" fill-rule="evenodd" stroke-width="2" stroke-linecap="round" stroke-linejoin="round" fill="rgba(0, 0, 0, 0)" stroke="rgba(224, 231, 255, 0.7)"/>
  <path d="M1.153 19.36c0-.737.261-1.188.596-1.57.417-.475.985-.79 1.751-.79H17M6.801 5.1v7.554L6.8 12.7h5.57" fill-rule="evenodd" stroke-width="2" stroke-linecap="round" stroke-linejoin="round" fill="rgba(0, 0, 0, 0)" stroke="rgba(224, 231, 255, 0.7)"/>
</svg>
</g></svg></g></g>
<!-- /image 59775 -->
</defs><rect x="0" y="0" width="800" height="800" fill="rgba(255, 255, 255, 1)"></rect><use xlink:href="#transformed-24879" transform="translate(-800, -800)"></use><use xlink:href="#transformed-24879" transform="translate(0, -800)"></use><use xlink:href="#transformed-24879" transform="translate(800, -800)"></use><use xlink:href="#transformed-24879" transform="translate(-800, 0)"></use><use xlink:href="#transformed-24879" transform="translate(0, 0)"></use><use xlink:href="#transformed-24879" transform="translate(800, 0)"></use><use xlink:href="#transformed-24879" transform="translate(-800, 800)"></use><use xlink:href="#transformed-24879" transform="translate(0, 800)"></use><use xlink:href="#transformed-24879" transform="translate(800, 800)"></use><use xlink:href="#transformed-59775" transform="translate(-800, -800)"></use><use xlink:href="#transformed-59775" transform="translate(0, -800)"></use><use xlink:href="#transformed-59775" transform="translate(800, -800)"></use><use xlink:href="#transformed-59775" transform="translate(-800, 0)"></use><use xlink:href="#transformed-59775" transform="translate(0, 0)"></use><use xlink:href="#transformed-59775" transform="translate(800, 0)"></use><use xlink:href="#transformed-59775" transform="translate(-800, 800)"></use><use xlink:href="#transformed-59775" transform="translate(0, 800)"></use><use xlink:href="#transformed-59775" transform="translate(800, 800)"></use></svg>