<?xml version="1.0" encoding="UTF-8"?>
<svg width="1100px" height="164px" viewBox="0 0 1100 164" version="1.1" xmlns="http://www.w3.org/2000/svg" xmlns:xlink="http://www.w3.org/1999/xlink">
    <title>Artboard</title>
    <g id="Artboard" stroke="none" stroke-width="1" fill="none" fill-rule="evenodd">
        <g id="Group-Copy-4" transform="translate(216.000000, 26.000000)" fill-rule="nonzero">
            <g id="LOOKBOOK" transform="translate(2.000000, 0.000000)">
                <path d="M14.3396527,110.305365 C9.81675149,110.305365 6.29608407,109.047226 3.77765044,106.530949 C1.25921681,104.014672 0,100.49702 0,95.9779917 L0,15.8679505 C0,11.2462173 1.23351851,7.70288858 3.70055553,5.23796424 C6.16759256,2.77303989 9.66256167,1.54057772 14.1854629,1.54057772 C18.8111573,1.54057772 22.3318247,2.77303989 24.7474651,5.23796424 C27.1631056,7.70288858 28.3709258,11.2462173 28.3709258,15.8679505 L28.3709258,86.7345254 L65.9932404,86.7345254 C69.8993823,86.7345254 72.9060837,87.735901 75.0133445,89.738652 C77.1206053,91.741403 78.1742357,94.6428244 78.1742357,98.4429161 C78.1742357,102.243008 77.1206053,105.170105 75.0133445,107.224209 C72.9060837,109.278313 69.8993823,110.305365 65.9932404,110.305365 L14.3396527,110.305365 Z" id="Path" fill="#3730A3"></path>
                <path d="M134.898955,112 C123.900082,112 114.23752,109.663457 105.91127,104.990371 C97.58502,100.317286 91.1347461,93.7698304 86.5604483,85.3480055 C81.9861505,76.9261807 79.6990016,67.1178359 79.6990016,55.9229711 C79.6990016,47.5011463 81.009615,39.8496103 83.6308418,32.9683631 C86.2520687,26.087116 90.0040208,20.1815681 94.8866983,15.2517194 C99.7693757,10.3218707 105.60289,6.5474553 112.387242,3.92847318 C119.171594,1.30949106 126.675498,0 134.898955,0 C145.897828,0 155.534692,2.31086657 163.809545,6.93259972 C172.084398,11.5543329 178.534672,18.0504356 183.160367,26.4209078 C187.786061,34.7913801 190.098908,44.6254012 190.098908,55.9229711 C190.098908,64.344796 188.788295,71.996332 186.167068,78.8775791 C183.545841,85.7588262 179.793889,91.6900504 174.911212,96.6712517 C170.028534,101.652453 164.19502,105.452545 157.410668,108.071527 C150.626316,110.690509 143.122412,112 134.898955,112 Z M134.898955,88.2751032 C140.346995,88.2751032 144.972689,86.9912884 148.776038,84.4236589 C152.579387,81.8560293 155.508993,78.1586428 157.564858,73.3314993 C159.620722,68.5043558 160.648654,62.7015131 160.648654,55.9229711 C160.648654,45.7551582 158.387203,37.8468592 153.864302,32.1980743 C149.341401,26.5492893 143.019619,23.7248968 134.898955,23.7248968 C129.553708,23.7248968 124.953712,24.9830353 121.098967,27.4993122 C117.244221,30.0155892 114.288917,33.6616231 112.233052,38.437414 C110.177188,43.213205 109.149256,49.041724 109.149256,55.9229711 C109.149256,66.090784 111.410707,74.0247593 115.933608,79.7248968 C120.456509,85.4250344 126.778291,88.2751032 134.898955,88.2751032 Z" id="Shape" fill="#3730A3"></path>
                <path d="M257.616915,112 C246.618041,112 236.95548,109.663457 228.62923,104.990371 C220.30298,100.317286 213.852706,93.7698304 209.278408,85.3480055 C204.70411,76.9261807 202.416961,67.1178359 202.416961,55.9229711 C202.416961,47.5011463 203.727575,39.8496103 206.348802,32.9683631 C208.970028,26.087116 212.72198,20.1815681 217.604658,15.2517194 C222.487335,10.3218707 228.32085,6.5474553 235.105202,3.92847318 C241.889554,1.30949106 249.393458,0 257.616915,0 C268.615788,0 278.252651,2.31086657 286.527505,6.93259972 C294.802358,11.5543329 301.252632,18.0504356 305.878326,26.4209078 C310.504021,34.7913801 312.816868,44.6254012 312.816868,55.9229711 C312.816868,64.344796 311.506255,71.996332 308.885028,78.8775791 C306.263801,85.7588262 302.511849,91.6900504 297.629171,96.6712517 C292.746494,101.652453 286.912979,105.452545 280.128627,108.071527 C273.344276,110.690509 265.840371,112 257.616915,112 Z M257.616915,88.2751032 C263.064955,88.2751032 267.690649,86.9912884 271.493998,84.4236589 C275.297347,81.8560293 278.226953,78.1586428 280.282817,73.3314993 C282.338681,68.5043558 283.366614,62.7015131 283.366614,55.9229711 C283.366614,45.7551582 281.105163,37.8468592 276.582262,32.1980743 C272.059361,26.5492893 265.737578,23.7248968 257.616915,23.7248968 C252.271668,23.7248968 247.671672,24.9830353 243.816926,27.4993122 C239.962181,30.0155892 237.006876,33.6616231 234.951012,38.437414 C232.895148,43.213205 231.867216,49.041724 231.867216,55.9229711 C231.867216,66.090784 234.128666,74.0247593 238.651568,79.7248968 C243.174469,85.4250344 249.496251,88.2751032 257.616915,88.2751032 Z" id="Shape" fill="#3730A3"></path>
                <path d="M342.0958,111.691884 C337.572899,111.691884 334.07793,110.433746 331.610893,107.917469 C329.143856,105.401192 327.910338,101.88354 327.910338,97.3645117 L327.910338,14.6354883 C327.910338,9.91104998 329.143856,6.34204493 331.610893,3.92847318 C334.07793,1.51490142 337.572899,0.308115543 342.0958,0.308115543 C346.721495,0.308115543 350.242162,1.51490142 352.657803,3.92847318 C355.073443,6.34204493 356.281263,9.91104998 356.281263,14.6354883 L356.281263,48.2200825 L356.589643,48.2200825 L394.057768,6.93259972 C396.010839,4.8784961 398.092401,3.2608895 400.302455,2.07977992 C402.512509,0.898670335 405.005245,0.308115543 407.780661,0.308115543 C412.097976,0.308115543 415.207471,1.41219624 417.109145,3.62035763 C419.010819,5.82851903 419.884562,8.39614856 419.730372,11.3232462 C419.576182,14.2503439 418.368362,16.9463549 416.106911,19.4112792 L378.792976,59.0041265 L378.792976,47.4497937 L417.957189,91.6643741 C420.629812,94.6428244 421.966124,97.6983035 421.966124,100.830812 C421.966124,103.96332 420.912494,106.556625 418.805233,108.610729 C416.697972,110.664833 413.588478,111.691884 409.476749,111.691884 C405.98178,111.691884 403.180665,110.998624 401.073404,109.612105 C398.966144,108.225585 396.678995,106.145805 394.211958,103.372765 L356.589643,61.3149931 L356.281263,61.3149931 L356.281263,97.3645117 C356.281263,101.88354 355.099141,105.401192 352.734898,107.917469 C350.370654,110.433746 346.824288,111.691884 342.0958,111.691884 Z" id="Path" fill="#3730A3"></path>
                <path d="M450.782487,110.305365 C445.951206,110.305365 442.276349,109.047226 439.757915,106.530949 C437.239482,104.014672 435.980265,100.394315 435.980265,95.6698762 L435.980265,16.3301238 C435.980265,11.6056855 437.239482,7.98532783 439.757915,5.46905089 C442.276349,2.95277396 445.951206,1.69463549 450.782487,1.69463549 L488.404802,1.69463549 C496.217086,1.69463549 502.872946,2.85006878 508.372383,5.16093535 C513.871819,7.47180193 518.060643,10.7326914 520.938852,14.9436039 C523.817062,19.1545163 525.256167,24.084365 525.256167,29.7331499 C525.256167,36.1008712 523.431588,41.5442458 519.782429,46.0632737 C516.13327,50.5823017 511.173498,53.6634571 504.903112,55.30674 L504.903112,52.8418157 C512.304223,54.176983 518.034944,57.1554333 522.095276,61.7771664 C526.155608,66.3988996 528.185774,72.3044475 528.185774,79.4938102 C528.185774,89.045392 524.767899,96.5685465 517.932151,102.063274 C511.096403,107.558001 501.767919,110.305365 489.9467,110.305365 L450.782487,110.305365 Z M463.117672,89.5075653 L486.091954,89.5075653 C491.334408,89.5075653 495.163455,88.5061898 497.579096,86.5034388 C499.994736,84.5006878 501.202556,81.4965612 501.202556,77.4910591 C501.202556,73.4855571 499.994736,70.5071068 497.579096,68.5557084 C495.163455,66.6043099 491.334408,65.6286107 486.091954,65.6286107 L463.117672,65.6286107 L463.117672,89.5075653 Z M463.117672,44.8308116 L483.316538,44.8308116 C488.456198,44.8308116 492.233849,43.9064649 494.649489,42.0577717 C497.06513,40.2090784 498.27295,37.3846859 498.27295,33.5845942 C498.27295,29.7845025 497.06513,26.9857863 494.649489,25.1884457 C492.233849,23.391105 488.456198,22.4924347 483.316538,22.4924347 L463.117672,22.4924347 L463.117672,44.8308116 Z" id="Shape" fill="#4F46E5"></path>
                <path d="M594.932831,112 C583.933957,112 574.271396,109.663457 565.945146,104.990371 C557.618896,100.317286 551.168622,93.7698304 546.594324,85.3480055 C542.020026,76.9261807 539.732878,67.1178359 539.732878,55.9229711 C539.732878,47.5011463 541.043491,39.8496103 543.664718,32.9683631 C546.285945,26.087116 550.037897,20.1815681 554.920574,15.2517194 C559.803252,10.3218707 565.636766,6.5474553 572.421118,3.92847318 C579.20547,1.30949106 586.709374,0 594.932831,0 C605.931704,0 615.568568,2.31086657 623.843421,6.93259972 C632.118274,11.5543329 638.568548,18.0504356 643.194243,26.4209078 C647.819937,34.7913801 650.132784,44.6254012 650.132784,55.9229711 C650.132784,64.344796 648.822171,71.996332 646.200944,78.8775791 C643.579717,85.7588262 639.827765,91.6900504 634.945088,96.6712517 C630.06241,101.652453 624.228896,105.452545 617.444544,108.071527 C610.660192,110.690509 603.156288,112 594.932831,112 Z M594.932831,88.2751032 C600.380871,88.2751032 605.006565,86.9912884 608.809914,84.4236589 C612.613263,81.8560293 615.542869,78.1586428 617.598734,73.3314993 C619.654598,68.5043558 620.68253,62.7015131 620.68253,55.9229711 C620.68253,45.7551582 618.421079,37.8468592 613.898178,32.1980743 C609.375277,26.5492893 603.053494,23.7248968 594.932831,23.7248968 C589.587584,23.7248968 584.987588,24.9830353 581.132843,27.4993122 C577.278097,30.0155892 574.322792,33.6616231 572.266928,38.437414 C570.211064,43.213205 569.183132,49.041724 569.183132,55.9229711 C569.183132,66.090784 571.444583,74.0247593 575.967484,79.7248968 C580.490385,85.4250344 586.812167,88.2751032 594.932831,88.2751032 Z" id="Shape" fill="#4F46E5"></path>
                <path d="M717.650791,112 C706.651917,112 696.989356,109.663457 688.663106,104.990371 C680.336856,100.317286 673.886582,93.7698304 669.312284,85.3480055 C664.737986,76.9261807 662.450837,67.1178359 662.450837,55.9229711 C662.450837,47.5011463 663.761451,39.8496103 666.382677,32.9683631 C669.003904,26.087116 672.755856,20.1815681 677.638534,15.2517194 C682.521211,10.3218707 688.354726,6.5474553 695.139078,3.92847318 C701.92343,1.30949106 709.427334,0 717.650791,0 C728.649664,0 738.286527,2.31086657 746.561381,6.93259972 C754.836234,11.5543329 761.286508,18.0504356 765.912202,26.4209078 C770.537897,34.7913801 772.850744,44.6254012 772.850744,55.9229711 C772.850744,64.344796 771.540131,71.996332 768.918904,78.8775791 C766.297677,85.7588262 762.545725,91.6900504 757.663047,96.6712517 C752.78037,101.652453 746.946855,105.452545 740.162503,108.071527 C733.378152,110.690509 725.874247,112 717.650791,112 Z M717.650791,88.2751032 C723.098831,88.2751032 727.724525,86.9912884 731.527874,84.4236589 C735.331223,81.8560293 738.260829,78.1586428 740.316693,73.3314993 C742.372557,68.5043558 743.400489,62.7015131 743.400489,55.9229711 C743.400489,45.7551582 741.139039,37.8468592 736.616138,32.1980743 C732.093236,26.5492893 725.771454,23.7248968 717.650791,23.7248968 C712.305544,23.7248968 707.705548,24.9830353 703.850802,27.4993122 C699.996057,30.0155892 697.040752,33.6616231 694.984888,38.437414 C692.929024,43.213205 691.901092,49.041724 691.901092,55.9229711 C691.901092,66.090784 694.162542,74.0247593 698.685443,79.7248968 C703.208345,85.4250344 709.530127,88.2751032 717.650791,88.2751032 Z" id="Shape" fill="#4F46E5"></path>
                <path d="M802.129676,111.691884 C797.606775,111.691884 794.111806,110.433746 791.644769,107.917469 C789.177732,105.401192 787.944214,101.88354 787.944214,97.3645117 L787.944214,14.6354883 C787.944214,9.91104998 789.177732,6.34204493 791.644769,3.92847318 C794.111806,1.51490142 797.606775,0.308115543 802.129676,0.308115543 C806.755371,0.308115543 810.276038,1.51490142 812.691679,3.92847318 C815.107319,6.34204493 816.315139,9.91104998 816.315139,14.6354883 L816.315139,48.2200825 L816.623519,48.2200825 L854.091644,6.93259972 C856.044715,4.8784961 858.126277,3.2608895 860.336331,2.07977992 C862.546385,0.898670335 865.03912,0.308115543 867.814537,0.308115543 C872.131852,0.308115543 875.241346,1.41219624 877.143021,3.62035763 C879.044695,5.82851903 879.918438,8.39614856 879.764248,11.3232462 C879.610058,14.2503439 878.402238,16.9463549 876.140787,19.4112792 L838.826852,59.0041265 L838.826852,47.4497937 L877.991065,91.6643741 C880.663688,94.6428244 882,97.6983035 882,100.830812 C882,103.96332 880.94637,106.556625 878.839109,108.610729 C876.731848,110.664833 873.622353,111.691884 869.510625,111.691884 C866.015656,111.691884 863.214541,110.998624 861.10728,109.612105 C859.000019,108.225585 856.712871,106.145805 854.245833,103.372765 L816.623519,61.3149931 L816.315139,61.3149931 L816.315139,97.3645117 C816.315139,101.88354 815.133017,105.401192 812.768774,107.917469 C810.40453,110.433746 806.858164,111.691884 802.129676,111.691884 Z" id="Path" fill="#4F46E5"></path>
            </g>
        </g>
        <g id="Group" transform="translate(6.000000, 6.000000)" stroke="#A5A0F4" stroke-linejoin="round" stroke-width="12">
            <path d="M18.90625,0 L121,0 L121,152 L18.90625,152 C8.46461645,152 0,143.49341 0,133 L0,19 C0,8.50658975 8.46461645,0 18.90625,0 Z" id="Path" stroke-linecap="round"></path>
            <path d="M1,140 C1,134.061376 2.99626866,130.437273 5.54992124,127.364161 C8.73133698,123.535588 13.0723711,121 18.9205827,121 L122,121" id="Path"></path>
            <polyline id="Line" stroke-linecap="round" points="45.0087965 31 45.0087965 87.6538279 45 88 87 88"></polyline>
        </g>
    </g>
</svg>